<?xml version="1.0" encoding="UTF-8" standalone="no"?>
<svg
   viewBox="0 1 24 24"
   height="24"
   width="24"
   version="1.1"
   id="svg4"
   sodipodi:docname="web-filled.svg"
   inkscape:version="1.2 (1:1.2.1+202207142221+cd75a1ee6d)"
   xmlns:inkscape="http://www.inkscape.org/namespaces/inkscape"
   xmlns:sodipodi="http://sodipodi.sourceforge.net/DTD/sodipodi-0.dtd"
   xmlns="http://www.w3.org/2000/svg"
   xmlns:svg="http://www.w3.org/2000/svg">
  <defs
     id="defs8" />
  <sodipodi:namedview
     id="namedview6"
     pagecolor="#ffffff"
     bordercolor="#666666"
     borderopacity="1.0"
     inkscape:pageshadow="2"
     inkscape:pageopacity="0.0"
     inkscape:pagecheckerboard="0"
     showgrid="true"
     inkscape:zoom="32.000001"
     inkscape:cx="5.1093748"
     inkscape:cy="13.328125"
     inkscape:window-width="1920"
     inkscape:window-height="1016"
     inkscape:window-x="0"
     inkscape:window-y="0"
     inkscape:window-maximized="1"
     inkscape:current-layer="svg4"
     inkscape:showpageshadow="2"
     inkscape:deskcolor="#d1d1d1">
    <inkscape:grid
       type="xygrid"
       id="grid845" />
  </sodipodi:namedview>
  <path
     id="path1099"
     style="fill:#808080;fill-opacity:1;fill-rule:evenodd;stroke-width:0.5;stroke-linecap:square"
     d="M 6 3 L 6 4 C 4.8245487 4.012925 3.9625849 4.0851133 3.2773438 4.4277344 C 2.8029637 4.6649242 2.4414419 5.0749037 2.25 5.5917969 C 2.0585581 6.10869 2 6.7222238 2 7.5 L 2 14.5 C 2 15.277776 2.0585582 15.89131 2.25 16.408203 C 2.4414419 16.925097 2.8029638 17.335075 3.2773438 17.572266 C 4.2261031 18.046645 5.500004 18 7.5 18 L 10 18 L 10 19 L 14 19 L 14 18 L 16.5 18 C 18.499996 18 19.773897 18.046649 20.722656 17.572266 C 21.197037 17.335075 21.558558 16.925097 21.75 16.408203 C 21.941442 15.89131 22 15.277776 22 14.5 L 22 7.5 C 22 6.7222238 21.94144 6.10869 21.75 5.5917969 C 21.558558 5.0749037 21.197037 4.6649242 20.722656 4.4277344 C 19.773897 3.9533545 18.499996 4 16.5 4 L 8 4 L 8 3 L 6 3 z M 12 6 C 14.761421 6 17 8.2385791 17 11 C 17 13.761421 14.761421 16 12 16 C 9.2385791 16 7 13.761421 7 11 C 7 8.2385791 9.2385791 6 12 6 z M 18.474609 6 C 18.483109 5.999568 18.49137 6 18.5 6 C 18.776142 6 19 6.2238579 19 6.5 C 19 6.7761421 18.776142 7 18.5 7 C 18.223858 7 18 6.7761421 18 6.5 C 18 6.2324873 18.210425 6.0133916 18.474609 6 z M 12 7 C 9.7908632 7 8 8.7908632 8 11 C 8 13.209137 9.7908632 15 12 15 C 14.209137 15 16 13.209137 16 11 C 16 8.7908632 14.209137 7 12 7 z M 12.048828 8.0019531 C 13.685821 8.0286001 14.999151 9.3627906 15 11 C 15 12.656852 13.656852 14 12 14 C 10.343148 14 9 12.656852 9 11 C 9.00329 9.4024836 10.257901 8.0877655 11.853516 8.0097656 C 11.362771 8.0824356 10.999493 8.5039046 11 9 C 11 9.5522844 11.447716 10 12 10 C 12.552284 10 13 9.5522844 13 9 C 12.999595 8.4669908 12.581202 8.0279791 12.048828 8.0019531 z M 3 21 L 3 22 L 21 22 L 21 21 L 3 21 z " />
</svg>
