<?xml version="1.0" encoding="UTF-8" standalone="no"?>
<svg
   height="24"
   width="24"
   version="1.1"
   id="svg10"
   sodipodi:docname="computer-legacy.svg"
   inkscape:version="1.2 (1:1.2.1+202207142221+cd75a1ee6d)"
   xmlns:inkscape="http://www.inkscape.org/namespaces/inkscape"
   xmlns:sodipodi="http://sodipodi.sourceforge.net/DTD/sodipodi-0.dtd"
   xmlns="http://www.w3.org/2000/svg"
   xmlns:svg="http://www.w3.org/2000/svg">
  <defs
     id="defs14" />
  <sodipodi:namedview
     id="namedview12"
     pagecolor="#ffffff"
     bordercolor="#666666"
     borderopacity="1.0"
     inkscape:pageshadow="2"
     inkscape:pageopacity="0.0"
     inkscape:pagecheckerboard="0"
     showgrid="true"
     inkscape:zoom="18.134012"
     inkscape:cx="18.77687"
     inkscape:cy="16.791651"
     inkscape:window-width="1850"
     inkscape:window-height="1016"
     inkscape:window-x="0"
     inkscape:window-y="0"
     inkscape:window-maximized="1"
     inkscape:current-layer="svg10"
     inkscape:showpageshadow="2"
     inkscape:deskcolor="#d1d1d1">
    <inkscape:grid
       type="xygrid"
       id="grid9" />
    <inkscape:grid
       type="xygrid"
       id="grid826"
       dotted="true"
       spacingx="0.5"
       spacingy="0.5"
       empspacing="10" />
  </sodipodi:namedview>
  <path
     style="color:#000000;fill:#808080;fill-opacity:1;-inkscape-stroke:none"
     d="m 3,17 -1,3 v 2 h 20 v -2 l -1,-3 z"
     id="path555"
     sodipodi:nodetypes="ccccccc" />
  <path
     id="rect439"
     style="color:#000000;fill:#808080;stroke-linejoin:round;-inkscape-stroke:none"
     d="M 4.4726562 2 C 2.000742 2.0109866 2 2.1875112 2 5 L 2 13 C 2 15.999988 2.000012 16 5 16 L 19 16 C 21.999988 16 22 15.999988 22 13 L 22 5 C 22 2.000012 21.999988 2 19 2 L 5 2 C 4.8125008 2 4.6374507 1.9992676 4.4726562 2 z M 6.5 4 L 12.5 4 C 13.884999 4 15 5.1150014 15 6.5 L 15 11.5 C 15 12.884999 13.884999 14 12.5 14 L 6.5 14 C 5.1150014 14 4 12.884999 4 11.5 L 4 6.5 C 4 5.1150014 5.1150014 4 6.5 4 z M 19 4 C 19.552284 4 20 4.4477159 20 5 C 20 5.5522841 19.552284 6 19 6 C 18.447716 6 18 5.5522841 18 5 C 18 4.4477159 18.447716 4 19 4 z M 17 8 L 20 8 L 20 9 L 17 9 L 17 8 z M 17 10 L 20 10 L 20 11 L 17 11 L 17 10 z " />
</svg>
