<svg version="1.1" viewBox="0 0 24 24" xmlns="http://www.w3.org/2000/svg">
 <path d="m6.7871 4c-0.67695 0.0055872-1.2506 0.048153-1.7598 0.30273-0.33944 0.16972-0.63001 0.46243-0.79688 0.83789-0.16687 0.37546-0.23047 0.81771-0.23047 1.3594v0.5 1 0.5c0 0.54167 0.063599 0.98392 0.23047 1.3594 0.16687 0.37546 0.45743 0.66817 0.79688 0.83789 0.50916 0.25458 1.0828 0.29714 1.7598 0.30273 0.067385 5.57e-4 0.14341-4e-5 0.21289 0h1 0.21289 0.28711v-0.005859c0.5543-0.017052 1.0371-0.079073 1.4727-0.29688 0.33944-0.16972 0.63-0.46243 0.79687-0.83789 0.16687-0.37546 0.23047-0.81771 0.23047-1.3594v-0.5-1.5c0-0.54167-0.0636-0.98392-0.23047-1.3594-0.16687-0.37546-0.45743-0.66817-0.79687-0.83789-0.4356-0.2178-0.91835-0.27983-1.4727-0.29688v-0.0058594h-1.5c-0.069484 4.06e-5 -0.14551-5.562e-4 -0.21289 0zm8 0c-0.67694 0.00559-1.2506 0.048153-1.7598 0.30273-0.33944 0.16972-0.63001 0.46243-0.79688 0.83789-0.16687 0.37546-0.23047 0.81771-0.23047 1.3594v0.5 2 0.5c0 0.54167 0.0636 0.98392 0.23047 1.3594 0.16687 0.37546 0.45743 0.66817 0.79688 0.83789 0.50916 0.25458 1.0828 0.29713 1.7598 0.30273 0.067386 5.56e-4 0.14341-4.1e-5 0.21289 0h2v0.005859c0.06948-4.1e-5 0.1455 5.56e-4 0.21289 0 0.67694-0.0056 1.2506-0.04815 1.7598-0.30273 0.33944-0.16972 0.63-0.46243 0.79688-0.83789 0.16687-0.37546 0.23047-0.81771 0.23047-1.3594v-0.5-2.0059-0.5c0-0.54167-0.0636-0.98392-0.23047-1.3594-0.16687-0.37546-0.45743-0.66817-0.79688-0.83789-0.4356-0.2178-0.91835-0.27983-1.4727-0.29688v-0.0058594h-2.5c-0.06948 4.06e-5 -0.1455-5.562e-4 -0.21289 0zm-7.7871 1h1v0.0058594c0.73046 0.013171 1.2641 0.059795 1.5273 0.19141 0.16056 0.080279 0.24499 0.16257 0.32812 0.34961 0.083131 0.18704 0.14453 0.49479 0.14453 0.95312v0.5 1 0.5c0 0.45833-0.0614 0.76608-0.14453 0.95312-0.08313 0.18704-0.16757 0.26933-0.32812 0.34961-0.26322 0.13161-0.79689 0.17824-1.5273 0.19141v0.0058594h-1v-0.0058594c-0.73046-0.013171-1.2641-0.059795-1.5273-0.19141-0.16056-0.080279-0.24499-0.16257-0.32812-0.34961-0.08313-0.18704-0.14453-0.49479-0.14453-0.95312v-0.5-1.5c0-0.45833 0.061401-0.76608 0.14453-0.95312 0.08313-0.18704 0.16757-0.26933 0.32812-0.34961 0.26322-0.13161 0.79689-0.17824 1.5273-0.19141v-0.0058594zm8 0h2v0.0058594c0.73046 0.013171 1.2641 0.059795 1.5273 0.19141 0.16056 0.080279 0.245 0.16257 0.32812 0.34961 0.083131 0.18704 0.14453 0.49479 0.14453 0.95312v0.5 2.5 0.0058594c0 0.45833-0.0614 0.76608-0.14453 0.95312-0.08313 0.18704-0.16757 0.26933-0.32812 0.34961-0.26322 0.13161-0.79689 0.17824-1.5273 0.19141h-2v-0.005859c-0.73046-0.013172-1.2641-0.059795-1.5273-0.19141-0.16056-0.080278-0.245-0.16257-0.32812-0.34961-0.083131-0.18704-0.14453-0.49479-0.14453-0.95312v-0.5-2-0.5c0-0.45833 0.0614-0.76608 0.14453-0.95312 0.08313-0.18704 0.16757-0.26933 0.32812-0.34961 0.26322-0.13161 0.79689-0.17824 1.5273-0.19141v-0.0058594zm-8.2129 8c-0.67695 0.0056-1.2506 0.04815-1.7598 0.30273-0.33944 0.16972-0.63001 0.46243-0.79688 0.83789-0.16687 0.37546-0.23047 0.81771-0.23047 1.3594v0.49805h1v-0.49805c0-0.45833 0.0614-0.76608 0.14453-0.95312 0.08313-0.18704 0.16757-0.26933 0.32812-0.34961 0.26322-0.13161 0.79689-0.17824 1.5273-0.19141v-0.005859h4v0.007812c0.73046 0.013171 1.2641 0.059796 1.5273 0.19141 0.16056 0.080279 0.245 0.16257 0.32812 0.34961 0.083131 0.18704 0.14453 0.49479 0.14453 0.95312v0.49805 1 0.49805c0 0.45833-0.0614 0.76608-0.14453 0.95312-0.08313 0.18704-0.16757 0.26933-0.32812 0.34961-0.26322 0.13161-0.79689 0.17824-1.5273 0.19141v0.007812h-4v-0.007812c-0.73046-0.013171-1.2641-0.059796-1.5273-0.19141-0.16056-0.080279-0.24499-0.16257-0.32812-0.34961-0.083131-0.18704-0.14453-0.49479-0.14453-0.95312v-0.49805-1h-1v1 0.49805c0 0.54167 0.063599 0.98392 0.23047 1.3594 0.16687 0.37546 0.45743 0.66817 0.79688 0.83789 0.50916 0.25458 1.0828 0.29714 1.7598 0.30274 0.067385 5.56e-4 0.14341-4e-5 0.21289 0v0.001953h4v-0.001953c0.06948-3.9e-5 0.1455 5.56e-4 0.21289 0 0.67694-0.0056 1.2506-0.04815 1.7598-0.30274 0.33944-0.16972 0.63001-0.46243 0.79688-0.83789 0.16687-0.37546 0.23047-0.81771 0.23047-1.3594v-0.49805-1-0.49805c0-0.54167-0.063599-0.98392-0.23047-1.3594-0.16687-0.37546-0.45743-0.66817-0.79688-0.83789-0.50916-0.25459-1.0828-0.29714-1.7598-0.30274-0.067386-5.56e-4 -0.14341 4e-5 -0.21289 0v-0.001953h-4c-0.069484 4e-5 -0.14551-5.56e-4 -0.21289 0zm10.213 1v2h-2v1h2v2h1v-2h2v-1h-2v-2h-1z" color="#000000" fill="#808080" stroke-width=".91264"/>
</svg>
