<svg version="1.1" viewBox="0 0 24 24" xmlns="http://www.w3.org/2000/svg">
 <path d="m6.7871 4c-0.67695 0.0055872-1.2506 0.048153-1.7598 0.30273-0.33944 0.16972-0.63001 0.46243-0.79688 0.83789-0.16687 0.37546-0.23047 0.81771-0.23047 1.3594v3c0 0.54167 0.063599 0.98392 0.23047 1.3594 0.16687 0.37546 0.45743 0.66817 0.79688 0.83789 0.67888 0.33944 2.4727 0.30273 2.4727 0.30273s1.7938 0.03671 2.4727-0.30273c0.33944-0.16972 0.63-0.46243 0.79687-0.83789s0.23047-0.81771 0.23047-1.3594v-3c0-0.54167-0.0636-0.98392-0.23047-1.3594-0.16687-0.37546-0.45743-0.66817-0.79687-0.83789-0.67888-0.33944-2.4727-0.30273-2.4727-0.30273s-0.48724-0.00186-0.71289 0zm8 0c-0.67694 0.00559-1.2506 0.048153-1.7598 0.30273-0.33944 0.16972-0.63001 0.46243-0.79688 0.83789-0.16687 0.37546-0.23047 0.81771-0.23047 1.3594v3c0 0.54167 0.0636 0.98392 0.23047 1.3594 0.16687 0.37546 0.45743 0.66817 0.79688 0.83789 0.67888 0.33944 1.4727 0.30273 2.4727 0.30273h1c1 0 1.7938 0.03671 2.4727-0.30273 0.33944-0.16972 0.63-0.46243 0.79688-0.83789s0.23047-0.81771 0.23047-1.3594v-3c0-0.54167-0.0636-0.98392-0.23047-1.3594-0.16687-0.37546-0.45743-0.66817-0.79688-0.83789-0.67888-0.33944-1.4727-0.30273-2.4727-0.30273h-1c-0.25 0-0.48724-0.00186-0.71289 0zm-3.5742 9c-0.22565-0.0019-0.46289 0.001953-0.71289 0.001953h-3c-0.25 0-0.48724-0.0019-0.71289 0-0.67694 0.0056-1.2506 0.048148-1.7598 0.30274-0.33944 0.16972-0.63001 0.46243-0.79688 0.83789-0.16687 0.37541-0.23047 0.81771-0.23047 1.3594v2c0 0.54167 0.0636 0.98392 0.23047 1.3594 0.16687 0.37546 0.45743 0.66817 0.79688 0.83789 0.67888 0.33944 1.4727 0.30273 2.4727 0.30273h3c1 0 1.7938 0.03671 2.4727-0.30273 0.33944-0.16972 0.63-0.46243 0.79688-0.83789s0.23047-0.81771 0.23047-1.3594v-2c0-0.54167-0.0636-0.98392-0.23047-1.3594-0.16687-0.37546-0.45743-0.66817-0.79688-0.83789-0.50916-0.25458-1.0828-0.2991-1.7598-0.30469zm5.7871 1v2h-2v1h2v2h1v-2h2v-1h-2v-2h-1z" color="#000000" fill="#808080" style="-inkscape-stroke:none"/>
</svg>
