<svg version="1.1" viewBox="0 0 24 24" xmlns="http://www.w3.org/2000/svg">
 <path d="m6.7871 4c-0.67695 0.0055872-1.2506 0.048153-1.7598 0.30273-0.33944 0.16972-0.63001 0.46243-0.79688 0.83789-0.16687 0.37546-0.23047 0.81771-0.23047 1.3594v3c0 0.54167 0.063599 0.98392 0.23047 1.3594 0.16687 0.37546 0.45743 0.66817 0.79688 0.83789 0.67888 0.33944 2.4727 0.30273 2.4727 0.30273s1.7938 0.03671 2.4727-0.30273c0.33944-0.16972 0.63-0.46243 0.79687-0.83789s0.23047-0.81771 0.23047-1.3594v-3c0-0.54167-0.0636-0.98392-0.23047-1.3594-0.16687-0.37546-0.45743-0.66817-0.79687-0.83789-0.67888-0.33944-2.4727-0.30273-2.4727-0.30273s-0.48724-0.00186-0.71289 0zm8 0c-0.67694 0.00559-1.2506 0.048153-1.7598 0.30273-0.33944 0.16972-0.63001 0.46243-0.79688 0.83789-0.16687 0.37546-0.23047 0.81771-0.23047 1.3594v3c0 0.54167 0.0636 0.98392 0.23047 1.3594 0.16687 0.37546 0.45743 0.66817 0.79688 0.83789 0.67888 0.33944 1.4727 0.30273 2.4727 0.30273h1c1 0 1.7938 0.03671 2.4727-0.30273 0.33944-0.16972 0.63-0.46243 0.79688-0.83789s0.23047-0.81771 0.23047-1.3594v-3c0-0.54167-0.0636-0.98392-0.23047-1.3594-0.16687-0.37546-0.45743-0.66817-0.79688-0.83789-0.67888-0.33944-1.4727-0.30273-2.4727-0.30273h-1c-0.25 0-0.48724-0.00186-0.71289 0zm-7.2871 1c1 0 1.7062 0.036708 2.0273 0.19727 0.16056 0.080279 0.245 0.16257 0.32812 0.34961s0.14453 0.49479 0.14453 0.95312v3c0 0.45833-0.0614 0.76608-0.14453 0.95312-0.08313 0.18704-0.16757 0.26933-0.32812 0.34961-0.32111 0.16056-1.0273 0.19727-2.0273 0.19727s-1.7062-0.03671-2.0273-0.19727c-0.16056-0.08028-0.24499-0.16257-0.32812-0.34961-0.08313-0.18704-0.14453-0.49479-0.14453-0.95312v-3c0-0.45833 0.061401-0.76608 0.14453-0.95312 0.08313-0.18704 0.16757-0.26933 0.32812-0.34961 0.32111-0.16056 1.0273-0.19727 2.0273-0.19727zm8 0h1c1 0 1.7062 0.036708 2.0273 0.19727 0.16056 0.080279 0.245 0.16257 0.32812 0.34961s0.14453 0.49479 0.14453 0.95312v3c0 0.45833-0.0614 0.76608-0.14453 0.95312-0.08313 0.18704-0.16757 0.26933-0.32812 0.34961-0.32111 0.16056-1.0273 0.19727-2.0273 0.19727h-1c-1 0-1.7062-0.03671-2.0273-0.19727-0.16056-0.08028-0.245-0.16257-0.32812-0.34961s-0.14453-0.49479-0.14453-0.95312v-3c0-0.45833 0.0614-0.76608 0.14453-0.95312 0.08313-0.18704 0.16757-0.26933 0.32812-0.34961 0.32112-0.16056 1.0273-0.19727 2.0273-0.19727zm-4.2871 8c-0.22565-0.0019-0.46289 2e-3 -0.71289 2e-3h-3c-0.25 0-0.48724-0.0019-0.71289 0-0.67694 0.0056-1.2506 0.04815-1.7598 0.30274-0.33944 0.16972-0.63001 0.46243-0.79688 0.83789-0.16687 0.37541-0.23047 0.81766-0.23047 1.3593v2c0 0.54167 0.0636 0.98392 0.23047 1.3594 0.16687 0.37546 0.45743 0.66817 0.79688 0.83789 0.67888 0.33944 1.4727 0.30273 2.4727 0.30273h3c1 0 1.7938 0.03671 2.4727-0.30273 0.33944-0.16972 0.63-0.46243 0.79688-0.83789s0.23047-0.81771 0.23047-1.3594v-2c0-0.54167-0.0636-0.98392-0.23047-1.3594-0.16687-0.37546-0.45743-0.66817-0.79688-0.83789-0.50916-0.25458-1.0828-0.2991-1.7598-0.30469zm-3.7129 1.002h3c1 0 1.7062 0.03671 2.0273 0.19727 0.16056 0.08028 0.245 0.16257 0.32812 0.34961s0.14453 0.49479 0.14453 0.95312v2c0 0.45833-0.0614 0.76608-0.14453 0.95312-0.08313 0.18704-0.16757 0.26933-0.32812 0.34961-0.32111 0.16056-1.0273 0.19726-2.0273 0.19726h-3c-1 0-1.7062-0.03671-2.0273-0.19726-0.16056-0.080281-0.24499-0.16257-0.32812-0.34961-0.08313-0.18704-0.14453-0.49479-0.14453-0.95312v-2c0-0.45833 0.0614-0.76608 0.14453-0.95312 0.08313-0.18704 0.16757-0.26933 0.32812-0.34961 0.32112-0.16056 1.0273-0.19726 2.0273-0.19726zm9.5-0.001977v2h-2v1h2v2h1v-2h2v-1h-2v-2z" color="#000000" fill="#808080" style="-inkscape-stroke:none"/>
</svg>
