<?xml version="1.0" encoding="UTF-8" standalone="no"?>
<svg
   viewBox="0 1 24 24"
   height="24"
   width="24"
   version="1.1"
   id="svg4"
   sodipodi:docname="card.svg"
   inkscape:version="1.2 (1:1.2.1+202207142221+cd75a1ee6d)"
   xmlns:inkscape="http://www.inkscape.org/namespaces/inkscape"
   xmlns:sodipodi="http://sodipodi.sourceforge.net/DTD/sodipodi-0.dtd"
   xmlns="http://www.w3.org/2000/svg"
   xmlns:svg="http://www.w3.org/2000/svg">
  <defs
     id="defs8" />
  <sodipodi:namedview
     id="namedview6"
     pagecolor="#ffffff"
     bordercolor="#666666"
     borderopacity="1.0"
     inkscape:pageshadow="2"
     inkscape:pageopacity="0.0"
     inkscape:pagecheckerboard="0"
     showgrid="false"
     inkscape:snap-page="true"
     inkscape:zoom="1"
     inkscape:cx="-194.5"
     inkscape:cy="-81"
     inkscape:window-width="1920"
     inkscape:window-height="1043"
     inkscape:window-x="0"
     inkscape:window-y="0"
     inkscape:window-maximized="1"
     inkscape:current-layer="svg4"
     inkscape:showpageshadow="2"
     inkscape:deskcolor="#d1d1d1">
    <inkscape:grid
       type="xygrid"
       id="grid6" />
    <inkscape:grid
       type="xygrid"
       id="grid823"
       dotted="true"
       spacingx="0.5"
       spacingy="0.5"
       empspacing="10" />
  </sodipodi:namedview>
  <path
     id="path847"
     style="fill:#808080;fill-opacity:1;fill-rule:evenodd;stroke-width:1;stroke-linecap:square;stroke-linejoin:round"
     d="m 16.539884,5 -7.3684206,1.4736839 c -0.1385659,0 -0.2504112,0.1643158 -0.2504112,0.368421 v 8.8435441 c -0.3186812,-0.239658 -0.7065222,-0.369445 -1.1052631,-0.369859 -1.0173666,0 -1.8421052,0.824738 -1.8421052,1.842105 0,1.017367 0.8247386,1.842105 1.8421052,1.842105 0.9866142,-0.0022 1.7962701,-0.781467 1.8363486,-1.76727 0.00332,-0.02402 0.00576,-0.04933 0.00576,-0.07484 v -7.8030432 l 6.6315783,-1.3268916 v 6.9208478 c -0.318681,-0.23966 -0.706523,-0.369445 -1.105264,-0.369861 -1.017366,0 -1.842105,0.824739 -1.842105,1.842105 0,1.017367 0.824739,1.842106 1.842105,1.842106 0.986615,-0.0022 1.796271,-0.781467 1.836349,-1.76727 0.0034,-0.02403 0.0058,-0.04933 0.0058,-0.07484 v -11.0526313 c 0,-0.2041052 -0.111845,-0.3684211 -0.250411,-0.3684211 z"
     sodipodi:nodetypes="ccsccsccsccccsccsssc" />
  <path
     style="color:#000000;fill:#808080;-inkscape-stroke:none"
     d="m 6.5,2 c -1.7738077,0 -2.9201924,0.088161 -3.6660156,0.8339844 -0.7458233,0.7458232 -0.8339844,1.8922079 -0.8339844,3.6660156 v 11 c 0,0.889666 0.036876,1.597083 0.1601563,2.189453 0.1232798,0.59237 0.347358,1.087426 0.7265625,1.449219 0.7584088,0.723586 1.8886008,0.812823 3.5996093,0.861328 h 0.00586 11.0078125 c 1.773808,0 2.920192,-0.08816 3.666016,-0.833984 0.745823,-0.745824 0.833984,-1.892208 0.833984,-3.666016 v -11 c 0,-1.7738077 -0.08816,-2.9201924 -0.833984,-3.6660156 -0.745824,-0.7458233 -1.892208,-0.8339844 -3.666016,-0.8339844 z m 0,1 h 11 c 1.726189,0 2.579809,0.16184 2.958984,0.5410156 0.379176,0.3791757 0.541016,1.2327957 0.541016,2.9589844 v 11 c 0,1.726189 -0.16184,2.579809 -0.541016,2.958984 -0.379175,0.379176 -1.232795,0.541016 -2.958984,0.541016 h -10.9863281 c -1.6729725,-0.04743 -2.5419061,-0.208508 -2.9375,-0.585938 -0.197797,-0.188714 -0.3395277,-0.456969 -0.4375,-0.927734 -0.097972,-0.470765 -0.1386719,-1.125996 -0.1386719,-1.986328 v -11 c 0,-1.7261888 0.16184,-2.5798087 0.5410156,-2.9589844 0.3791757,-0.3791756 1.2327957,-0.5410156 2.9589844,-0.5410156 z"
     id="path605" />
</svg>
