<?xml version="1.0" encoding="UTF-8" standalone="no"?>
<svg
   height="24"
   id="svg7384"
   version="1.1"
   width="24"
   sodipodi:docname="image.svg"
   inkscape:version="1.1 (ce6663b3b7, 2021-05-25)"
   xmlns:inkscape="http://www.inkscape.org/namespaces/inkscape"
   xmlns:sodipodi="http://sodipodi.sourceforge.net/DTD/sodipodi-0.dtd"
   xmlns="http://www.w3.org/2000/svg"
   xmlns:svg="http://www.w3.org/2000/svg"
   xmlns:rdf="http://www.w3.org/1999/02/22-rdf-syntax-ns#"
   xmlns:cc="http://creativecommons.org/ns#"
   xmlns:dc="http://purl.org/dc/elements/1.1/">
  <sodipodi:namedview
     id="namedview24"
     pagecolor="#ffffff"
     bordercolor="#666666"
     borderopacity="1.0"
     inkscape:pageshadow="2"
     inkscape:pageopacity="0.0"
     inkscape:pagecheckerboard="0"
     showgrid="true"
     inkscape:snap-page="true"
     inkscape:zoom="28"
     inkscape:cx="12.482143"
     inkscape:cy="13.964286"
     inkscape:window-width="1920"
     inkscape:window-height="1043"
     inkscape:window-x="1920"
     inkscape:window-y="0"
     inkscape:window-maximized="1"
     inkscape:current-layer="svg7384">
    <inkscape:grid
       type="xygrid"
       id="grid1105" />
    <inkscape:grid
       dotted="true"
       spacingx="0.5"
       spacingy="0.5"
       empspacing="10"
       type="xygrid"
       id="grid841" />
  </sodipodi:namedview>
  <metadata
     id="metadata20854">
    <rdf:RDF>
      <cc:Work
         rdf:about="">
        <dc:format>image/svg+xml</dc:format>
        <dc:type
           rdf:resource="http://purl.org/dc/dcmitype/StillImage" />
      </cc:Work>
    </rdf:RDF>
  </metadata>
  <defs
     id="defs7386">
    <linearGradient
       id="linearGradient5606"
       inkscape:swatch="solid">
      <stop
         id="stop5608"
         offset="0"
         style="stop-color:#000000;stop-opacity:1;" />
    </linearGradient>
    <linearGradient
       id="linearGradient4526"
       inkscape:swatch="solid">
      <stop
         id="stop4528"
         offset="0"
         style="stop-color:#ffffff;stop-opacity:1;" />
    </linearGradient>
    <linearGradient
       id="linearGradient3600-4"
       inkscape:swatch="gradient">
      <stop
         id="stop3602-7"
         offset="0"
         style="stop-color:#f4f4f4;stop-opacity:1" />
      <stop
         id="stop3604-6"
         offset="1"
         style="stop-color:#dbdbdb;stop-opacity:1" />
    </linearGradient>
  </defs>
  <g
     id="layer9"
     label="status"
     style="display:inline;stroke-width:0.8"
     transform="matrix(1.25,0,0,1.25,-514.25025,185.75)" />
  <g
     id="layer2"
     style="display:inline;stroke-width:0.8"
     transform="matrix(1.25,0,0,1.25,-213,-273)" />
  <g
     id="layer4"
     style="display:inline;stroke-width:0.8"
     transform="matrix(1.25,0,0,1.25,-213,-273)" />
  <g
     id="g1812"
     style="display:inline;stroke-width:0.8"
     transform="matrix(1.25,0,0,1.25,-213,-273)" />
  <g
     id="g6217"
     style="display:inline;stroke-width:0.8"
     transform="matrix(1.25,0,0,1.25,-213,-273)" />
  <g
     id="layer3"
     style="display:inline;stroke-width:0.8"
     transform="matrix(1.25,0,0,1.25,-213,-273)" />
  <g
     id="g1833"
     style="display:inline;stroke-width:0.8"
     transform="matrix(1.25,0,0,1.25,-213,-273)" />
  <path
     style="fill:none;stroke:#808080;stroke-width:1px;stroke-linecap:butt;stroke-linejoin:miter;stroke-opacity:1"
     d="m 8.5,3.5013927 h 6 c 3,0 4,0 4,3 v 6.0000003 c 0,3 -1,3 -4,3 h -6 c -3,0 -4,0 -4,-3 v -6.0000003 c 0,-3 1,-3 4,-3 z"
     id="path876"
     sodipodi:nodetypes="ccccccccc" />
  <rect
     style="fill:#808080;fill-opacity:1;fill-rule:evenodd;stroke-width:2"
     id="rect1478"
     width="13"
     height="2"
     x="5"
     y="13.001392" />
  <path
     style="fill:#808080;fill-opacity:1;stroke:none;stroke-width:1px;stroke-linecap:butt;stroke-linejoin:miter"
     d="m 7,12.001393 2.5,-5.0000003 1.5,2.5 1.5,-1.5 2.5,4.0000003 z"
     id="path1513"
     sodipodi:nodetypes="cccccc" />
  <circle
     style="fill:#808080;fill-opacity:1;fill-rule:evenodd;stroke:none;stroke-width:2"
     id="path1806"
     cx="15"
     cy="7.0013928"
     r="1" />
  <g
     id="layer1"
     style="display:inline;stroke-width:0.8"
     transform="matrix(1.25,0,0,1.25,-195.77274,-272.5016)">
    <path
       style="color:#000000;display:inline;overflow:visible;visibility:visible;opacity:1;fill:#808080;fill-opacity:1;fill-rule:nonzero;stroke:none;stroke-width:0.599882;marker:none;enable-background:accumulate"
       d="m 167.99999,231.60139 -4.36361,0.001 c 0.30341,0.66365 0.64289,1.33926 1.01795,2.02713 0.37595,0.68141 0.76372,1.33869 1.16367,1.97142 0.39196,-0.63273 0.77602,-1.29001 1.15197,-1.97142 0.37527,-0.68825 0.71852,-1.36424 1.03003,-2.02824 z"
       id="path6606" />
  </g>
</svg>
